<svg xmlns="http://www.w3.org/2000/svg" xml:space="preserve" width="512" height="512"><path d="M395.247 95.811s2.181-2.18 28.647 24.285c26.473 26.477 24.293 28.656 24.293 28.656L215.534 381.407s2.184-2.18-24.293-28.656c-26.477-26.469-28.656-24.289-28.656-24.289L395.247 95.811zM153.871 337.181 128 416l78.818-25.875s2.181-2.18-24.296-28.647c-26.468-26.477-28.651-24.297-28.651-24.297zM403.971 87.089 421.41 69.64s17.449-17.449 43.922 9.027c26.478 26.469 9.023 43.914 9.023 43.914L456.91 140.03s2.181-2.18-24.284-28.656c-26.475-26.465-28.655-24.285-28.655-24.285z"/><path d="M400 242.195V424c0 4.411-3.589 8-8 8H88c-4.411 0-8-3.589-8-8V120c0-4.411 3.589-8 8-8h245.799l48.002-48H88c-30.878 0-56 25.122-56 56v304c0 30.879 25.122 56 56 56h304c30.879 0 56-25.121 56-56V194.195l-48 48z"/></svg>